<svg width="48" height="48" viewBox="0 0 48 48" fill="none" xmlns="http://www.w3.org/2000/svg">
<path d="M41.68 9.21975C40.6585 8.19775 39.4456 7.38704 38.1107 6.83391C36.7758 6.28079 35.345 5.99609 33.9 5.99609C32.455 5.99609 31.0242 6.28079 29.6893 6.83391C28.3544 7.38704 27.1415 8.19775 26.12 9.21975L24 11.3397L21.88 9.21975C19.8166 7.15636 17.0181 5.99716 14.1 5.99716C11.1819 5.99716 8.38338 7.15636 6.31999 9.21975C4.25661 11.2831 3.09741 14.0817 3.09741 16.9997C3.09741 19.9178 4.25661 22.7164 6.31999 24.7797L8.43999 26.8997L24 42.4597L39.56 26.8997L41.68 24.7797C42.702 23.7582 43.5127 22.5454 44.0658 21.2105C44.6189 19.8755 44.9036 18.4447 44.9036 16.9997C44.9036 15.5548 44.6189 14.124 44.0658 12.789C43.5127 11.4541 42.702 10.2413 41.68 9.21975Z" stroke="#7BC04C" stroke-width="4" stroke-linecap="round" stroke-linejoin="round"/>
</svg>
