<svg width="49" height="49" viewBox="0 0 49 49" fill="none" xmlns="http://www.w3.org/2000/svg">
<path d="M22.5 8.04297H8.5C7.43913 8.04297 6.42172 8.4644 5.67157 9.21454C4.92143 9.96469 4.5 10.9821 4.5 12.043V40.043C4.5 41.1038 4.92143 42.1212 5.67157 42.8714C6.42172 43.6215 7.43913 44.043 8.5 44.043H36.5C37.5609 44.043 38.5783 43.6215 39.3284 42.8714C40.0786 42.1212 40.5 41.1038 40.5 40.043V26.043" stroke="#7BC04C" stroke-width="4" stroke-linecap="round" stroke-linejoin="round"/>
<path d="M37.5 5.04342C38.2956 4.24777 39.3748 3.80078 40.5 3.80078C41.6252 3.80078 42.7044 4.24777 43.5 5.04342C44.2956 5.83907 44.7426 6.9182 44.7426 8.04342C44.7426 9.16864 44.2956 10.2478 43.5 11.0434L24.5 30.0434L16.5 32.0434L18.5 24.0434L37.5 5.04342Z" stroke="#7BC04C" stroke-width="4" stroke-linecap="round" stroke-linejoin="round"/>
</svg>
